@startuml dm

skinparam classAttributeIconSize 0
hide empty attributes
hide empty methods
skinparam classBackgroundColor beige
skinparam ArrowColor #222222

left to right direction

package "<<aggregate>> User" {
  entity User <<entity>> <<root>> { }

  class Name <<(V,#FF8B40) value object>> {}
  class Email <<(V,#FF8B40) value object>> {}
  class PhoneNumber <<(V,#FF8B40) value object>> {}
  class Role <<(V,#FF8B40) value object>> {
    - USER
    - FLEET_MANAGER
    - CAMPUS_MANAGER
    - TASK_MANAGER
    - ADMIN
  }
}

User "1" *-- "1" Role
User "1" *-- "1" Name
User "1" *-- "1" Email
User "1" *-- "1" PhoneNumber

package "<<aggregate>> Robot" {
  entity Robot <<entity>> <<root>> { }
}

package "<<aggregate>> Drone" {
  entity Drone <<entity>> <<root>> { }
}

package "<<aggregate>> DeviceModel" {
  entity DeviceModel <<entity>> <<root>> { }

  class Brand <<(V,#FF8B40) value object>> {}
  class DeviceCode <<(V,#FF8B40) value object>> {}
  class DeviceName <<(V,#FF8B40) value object>> {}
}

package "<<aggregate>> Device" {
  entity Device <<entity>> <<root>> {
    - isAvailable
  }

  class SerialNumber <<(V,#FF8B40) value object>> {}
  class Nickname <<(V,#FF8B40) value object>> {}
  class Description <<(V,#FF8B40) value object>> {}
}

DeviceModel "1" *-- "1" Brand
DeviceModel "1" *-- "1" DeviceCode
DeviceModel "1" *-- "1" DeviceName

Device "1" --> "1" DeviceModel : is for

Device "1" *-- "1" SerialNumber
Device "1" *-- "1" Nickname
Device "1" *-- "1" Description

DeviceModel <|--- Robot
DeviceModel <|-- Drone

package "<<aggregate>> Floor" {
  entity Floor <<entity>> <<root>> { }

  entity FloorMap <<entity>> { }
  class FloorDescription <<(V,#FF8B40) value object>> {}
}

package "<<aggregate>> Room" {
  entity Room <<entity>> { }

  class RoomName <<(V,#FF8B40) value object>> {}
  class RoomCategory <<(V,#FF8B40) value object>> {
    - OFFICE
    - LAB
    - MEETING_ROOM
    - CLASSROOM
  }
  class RoomDescription <<(V,#FF8B40) value object>> {}
}

Floor "1" *-- "0..1" FloorMap
Floor "1" *-- "0..1" FloorDescription
Room "1" *-- "0..1" RoomDescription
Room "1" *-- "1" RoomCategory


package "<<aggregate>> Building" {
  entity Building <<entity>> <<root>> { }

  class BuildingCode <<(V,#FF8B40) value object>> {}
  class BuildingName <<(V,#FF8B40) value object>> {}
  
  entity Elevator <<entity>> { }
  class ElevatorIdentifier <<(V,#FF8B40) value object>> {}
  class ElevatorBrand <<(V,#FF8B40) value object>> {}
  class ElevatorModel <<(V,#FF8B40) value object>> {}
  class ElevatorSerialNumber <<(V,#FF8B40) value object>> {}
  class ElevatorDescription <<(V,#FF8B40) value object>> {}

  class BuildingDescription <<(V,#FF8B40) value object>> {}
  class MaxDimensions <<(V,#FF8B40) value object>> {
    - width
    - length
  }
}

Elevator "1" --> "1..*" Floor : is for
Building "1" *-- "1" Elevator : has
Elevator *-- "1" ElevatorIdentifier
Elevator *-- "0..1" ElevatorBrand
Elevator *-- "0..1" ElevatorModel
Elevator *-- "0..1" ElevatorSerialNumber
Elevator *-- "0..1" ElevatorDescription

package "<<aggregate>> Connector" {
  entity Connector <<entity>> <<root>> { }

  class ConnectorCode <<(V,#FF8B40) value object>> {}
}

Connector "1" *-- "1" ConnectorCode

Building "1" *-- "0..1" BuildingName
Building "1" *-- "1" BuildingCode
Building "1" *-- "0..1" BuildingDescription
Building "1" *-- "1" MaxDimensions

Floor "1" --> "1" Building : belongs to
Floor "1" *-- "*" Room
Room "1" *-- "1" RoomName

package "<<aggregate>> Request" {
  entity Request <<entity>> <<root>> { }

  class RequestState <<(V,#FF8B40) value object>> {}
}

package "<<aggregate>> Task" {
  entity Task <<entity>> <<root>> { }
}

package "<<aggregate>> PickUpAndDelivery" {
  entity PickUpAndDelivery <<entity>> <<root>> { }

  class PickupDescription <<(V,#FF8B40) value object>> {}
  class ConfirmationCode <<(V,#FF8B40) value object>> {}
}

PickUpAndDelivery "1" *-- "1" PickupDescription
PickUpAndDelivery "1" *-- "1" ConfirmationCode
PickUpAndDelivery "1" --> "1" User : pick up contact
PickUpAndDelivery "1" --> "1" User : delivery contact
PickUpAndDelivery "1" --> "1" Room : pick up location
PickUpAndDelivery "1" --> "1" Room : delivery location

package "<<aggregate>> Surveillance" {
  entity Surveillance <<entity>> <<root>> { }
}

Surveillance "1" --> "1" User : contact
Surveillance "1" --> "1..*" Floor : target

PickUpAndDelivery --|> Task
Surveillance --|> Task

DeviceModel "1" <-- "1" Request : can perform

Request "1" *-- "1" RequestState

Connector "1" --> "2" Floor : is for
User "1" <-- "1" Request : is made
Request "1" --> "1" Task : is for

@enduml
